<?xml version="1.0" standalone="no"?><!DOCTYPE svg PUBLIC "-//W3C//DTD SVG 1.1//EN" "http://www.w3.org/Graphics/SVG/1.1/DTD/svg11.dtd"><svg t="1742551624651" class="icon" viewBox="0 0 1024 1024" version="1.1" xmlns="http://www.w3.org/2000/svg" p-id="4935" xmlns:xlink="http://www.w3.org/1999/xlink" width="200" height="200"><path d="M896 512a298.666667 298.666667 0 0 1-298.666667 298.666667h-20.266666a213.333333 213.333333 0 0 0 68.693333-90.026667A213.333333 213.333333 0 0 0 600.96 298.666667a213.333333 213.333333 0 0 0-60.586667-80A298.666667 298.666667 0 0 1 896 512z m-277.333333 128a170.666667 170.666667 0 0 1-170.666667 170.666667H128V213.333333h277.333333a170.666667 170.666667 0 0 1 130.56 280.533334A170.666667 170.666667 0 0 1 618.666667 640z m-405.333334-170.666667h192a85.333333 85.333333 0 0 0 0-170.666666h-192z m320 170.666667a85.333333 85.333333 0 0 0-85.333333-85.333333H213.333333v170.666666h234.666667a85.333333 85.333333 0 0 0 85.333333-85.333333z" p-id="4936" data-spm-anchor-id="a313x.search_index.0.i0.28283a818zCsVh" class="" fill="#409EFF"></path></svg>